<?xml version="1.0" encoding="UTF-8" standalone="no"?>
<!-- Created with Inkscape (http://www.inkscape.org/) -->
<svg xmlns:dc="http://purl.org/dc/elements/1.1/" xmlns:cc="http://creativecommons.org/ns#" xmlns:rdf="http://www.w3.org/1999/02/22-rdf-syntax-ns#" xmlns:svg="http://www.w3.org/2000/svg" xmlns="http://www.w3.org/2000/svg" xmlns:sodipodi="http://sodipodi.sourceforge.net/DTD/sodipodi-0.dtd" xmlns:inkscape="http://www.inkscape.org/namespaces/inkscape" width="447.19437" height="299.99808" id="svg2412" sodipodi:version="0.32" inkscape:version="0.46" version="1.0" sodipodi:docname="cwfs-25-degree.svg" inkscape:output_extension="org.inkscape.output.svg.inkscape">
  <defs id="defs2414">
    <inkscape:perspective sodipodi:type="inkscape:persp3d" inkscape:vp_x="0 : 526.18109 : 1" inkscape:vp_y="0 : 1000 : 0" inkscape:vp_z="744.09448 : 526.18109 : 1" inkscape:persp3d-origin="372.04724 : 350.78739 : 1" id="perspective2420"/>
  </defs>
  <sodipodi:namedview id="base" pagecolor="#ffffff" bordercolor="#666666" borderopacity="1.0" gridtolerance="10000" guidetolerance="10" objecttolerance="10" inkscape:pageopacity="0.0" inkscape:pageshadow="2" inkscape:zoom="0.35" inkscape:cx="203.57143" inkscape:cy="520" inkscape:document-units="px" inkscape:current-layer="layer1" showgrid="false" inkscape:window-width="1680" inkscape:window-height="997" inkscape:window-x="0" inkscape:window-y="0"/>
  <metadata id="metadata2417">
    <rdf:RDF>
      <cc:Work rdf:about="">
        <dc:format>image/svg+xml</dc:format>
        <dc:type rdf:resource="http://purl.org/dc/dcmitype/StillImage"/>
        <dc:title>CREATED WITH FREE SOFTWARE</dc:title>
        <dc:creator>
          <cc:Agent>
            <dc:title>Sebastian Pipping</dc:title>
          </cc:Agent>
        </dc:creator>
        <cc:license rdf:resource="http://creativecommons.org/licenses/by-sa/3.0/"/>
      </cc:Work>
      <cc:License rdf:about="http://creativecommons.org/licenses/by-sa/3.0/">
        <cc:permits rdf:resource="http://creativecommons.org/ns#Reproduction"/>
        <cc:permits rdf:resource="http://creativecommons.org/ns#Distribution"/>
        <cc:requires rdf:resource="http://creativecommons.org/ns#Notice"/>
        <cc:requires rdf:resource="http://creativecommons.org/ns#Attribution"/>
        <cc:permits rdf:resource="http://creativecommons.org/ns#DerivativeWorks"/>
        <cc:requires rdf:resource="http://creativecommons.org/ns#ShareAlike"/>
      </cc:License>
    </rdf:RDF>
  </metadata>
  <g inkscape:label="Layer 1" inkscape:groupmode="layer" id="layer1" transform="translate(-919.26, -508.077)">
    <path id="path2610" d="M 932.81301,678.56479 C 930.06742,679.84508 927.68385,681.56486 925.7131,683.59956 C 926.17967,684.07006 926.64324,684.54162 927.10027,685.02155 C 927.29043,685.31039 927.46171,685.61286 927.64938,685.90335 C 926.81575,685.73484 925.97853,685.58515 925.1462,685.41553 C 924.86324,685.35787 924.58096,685.28527 924.2986,685.22461 C 922.38112,687.60821 920.94493,690.30997 920.11082,693.17702 C 921.72969,692.64405 923.36335,692.15269 925.00276,691.68892 C 926.32714,691.9567 927.65442,692.25444 928.97839,692.52454 C 930.5707,689.54452 933.14975,686.99342 936.52634,685.41889 L 956.97492,675.88357 C 956.62291,675.25449 956.27194,674.62687 955.95036,673.98217 C 956.49091,673.92485 957.02961,673.85011 957.57777,673.77498 C 957.76952,673.74871 957.98518,673.76319 958.19323,673.76384 C 958.46082,674.15779 958.72192,674.54933 958.98579,674.94588 L 976.8004,666.63879 C 976.71175,666.36716 976.60551,666.08127 976.51558,665.80615 C 978.20741,664.12798 977.77273,664.08899 976.59337,664.4941 C 976.62083,664.43368 976.62566,664.38946 976.65383,664.32798 C 976.82742,663.9491 976.38346,663.56929 976.12556,663.1951 C 976.4613,663.3087 976.801,663.40845 977.02041,663.19159 C 978.02044,662.20321 978.81447,661.48376 979.47535,660.84001 C 980.16326,660.99441 980.85403,661.15696 981.54623,661.28805 C 981.14473,661.85256 980.78446,662.41881 980.45266,662.93585 C 980.26404,663.22975 980.55021,663.478 980.92062,663.71757 C 980.86559,663.93431 980.81727,664.15103 980.77695,664.37073 C 980.75016,664.51666 980.76181,664.64756 980.7655,664.78984 L 987.30791,661.73906 C 987.20197,661.55212 987.06426,661.32193 986.94751,661.11407 C 986.9738,661.08524 986.99331,661.07452 987.01927,661.04613 C 987.2046,661.07035 986.98354,661.03668 987.2005,661.06506 C 987.5515,661.07487 988.00044,661.13808 988.46911,661.19758 L 1012.0614,650.1963 C 1011.8778,649.74439 1011.6931,649.28406 1011.5257,648.82554 C 1012.2322,649.01698 1012.9223,649.23621 1013.6192,649.46993 L 1014.4405,649.08693 C 1014.6429,648.75335 1014.8831,648.46473 1015.0901,648.33574 C 1014.9976,648.53186 1014.8975,648.71771 1014.8087,648.91524 L 1057.0653,629.21066 C 1057.2528,628.95035 1057.4403,628.68628 1057.6319,628.42925 C 1057.4595,627.94757 1057.2571,627.47734 1057.0697,627.00184 C 1057.4154,627.15725 1057.7864,627.30082 1058.1098,627.30987 C 1058.363,627.31695 1058.6919,627.29072 1058.8292,627.07788 C 1059.1901,626.51843 1059.5511,625.96575 1059.9096,625.40176 C 1060.1715,626.10313 1060.4527,626.80704 1060.7188,627.50698 L 1066.1284,624.98448 C 1065.5708,623.58177 1064.9912,622.17358 1064.4683,620.75891 C 1066.0315,621.72571 1067.6046,622.66252 1069.2155,623.54494 L 1082.5552,617.32452 C 1082.4708,617.29856 1082.3903,617.26014 1082.306,617.23383 C 1082.7235,616.40312 1083.0951,615.54637 1083.3829,614.66286 C 1083.6227,613.9264 1082.8832,613.19885 1082.5472,612.50098 C 1081.9029,611.16294 1081.3753,610.37032 1080.7961,609.55915 L 1074.5935,612.45144 C 1074.7644,612.6685 1074.9387,612.88932 1075.1069,613.10858 C 1075.6876,613.9512 1076.1298,614.53561 1076.5467,615.16113 C 1076.4104,615.10602 1076.2674,615.06579 1076.1314,615.00998 C 1074.9392,614.46648 1073.7707,613.92495 1072.611,613.37592 L 1049.047,624.36399 C 1049.0857,624.45018 1049.127,624.53278 1049.1659,624.61889 C 1049.0683,624.79476 1048.9817,624.96472 1048.8863,625.12854 C 1048.7916,624.90478 1048.7116,624.71866 1048.7184,624.62065 C 1048.722,624.57013 1048.7591,624.51372 1048.8204,624.46965 L 1047.9141,624.89227 C 1047.7433,625.1375 1047.5204,625.45115 1047.2738,625.81148 C 1046.7461,625.37459 1046.3764,625.9028 1045.6705,627.697 C 1045.2276,627.31763 1044.7877,626.93656 1044.3455,626.55633 L 1037.6898,629.65993 C 1038.0423,629.95733 1038.4064,630.24132 1038.7562,630.54189 C 1038.5632,630.98121 1038.3517,631.4405 1038.0875,631.99158 C 1036.9802,632.96739 1036.4829,633.50651 1036.4596,633.75061 C 1035.7479,634.59827 1035.5519,635.52548 1035.1522,637.08422 C 1035.3054,637.53825 1035.443,637.97423 1035.6049,638.42475 C 1035.4537,638.36489 1035.2989,638.31934 1035.1481,638.25848 C 1034.3295,636.16981 1033.4953,634.08923 1032.6485,632.01074 L 1004.8362,644.97984 C 1004.8676,645.1643 1004.8884,645.3396 1004.9191,645.52735 C 1004.9703,645.72487 1005.0346,645.90892 1005.085,646.10509 C 1004.8188,645.81608 1004.54,645.52889 1004.2697,645.24398 L 954.28118,668.55402 L 940.57327,674.94612 C 943.25346,674.82228 945.94483,674.69292 948.62332,674.53693 C 948.62342,674.76489 948.63219,674.99432 948.63256,675.22224 C 948.64038,675.82735 948.6316,676.44428 948.62447,677.05348 C 947.75349,677.13164 946.86709,677.12661 946.08899,677.23586 C 944.75665,677.28498 943.47993,677.70543 942.17145,677.85582 C 941.45819,677.53621 940.7567,677.17153 940.06111,676.80553 C 939.77977,676.39888 939.4902,675.99015 939.21381,675.58005 L 932.81301,678.56479 z M 1084.7329,607.7234 C 1084.1568,608.58583 1083.5844,609.46125 1082.9575,610.27529 C 1083.2025,612.36985 1083.9212,614.34831 1084.651,616.34722 L 1090.0889,613.81151 C 1090.0265,613.62275 1089.9584,613.43532 1089.8946,613.24698 C 1090.1022,613.36627 1090.3062,613.49395 1090.5137,613.61341 L 1111.2455,603.94601 C 1109.1852,603.7095 1107.1416,603.52267 1105.0666,603.4137 C 1103.9962,603.45515 1102.8739,603.04325 1101.8006,603.21262 C 1102.1252,602.76358 1102.4398,602.32079 1102.7601,601.86873 C 1103.1114,602.00994 1103.4448,602.08762 1103.6833,601.85201 C 1104.2936,601.96083 1104.9086,602.06166 1105.5201,602.16783 C 1108.7472,602.51109 1108.6478,602.77441 1110.4417,596.01101 C 1110.456,595.98661 1110.4416,595.95768 1110.4436,595.94116 C 1110.7587,595.72618 1111.0695,595.51168 1111.384,595.29578 L 1098.4691,601.31809 C 1097.9602,602.01846 1097.4678,602.72164 1096.9714,603.43019 C 1096.8023,603.33533 1096.6312,603.24484 1096.4617,603.15063 C 1096.4513,603.12155 1096.4326,603.09475 1096.4221,603.06567 C 1096.291,602.69797 1096.2726,602.6601 1096.175,602.38784 L 1084.7329,607.7234 z M 1111.5822,595.20333 C 1113.7074,596.12768 1115.8162,597.15954 1117.9662,597.9502 C 1118.2426,598.01147 1118.4904,598.10073 1118.7723,598.12601 C 1119.4018,598.1824 1119.9988,597.85256 1120.6263,597.81316 C 1120.6819,597.80968 1120.7469,597.82151 1120.8075,597.8321 C 1121.0573,598.26884 1121.2912,598.70995 1121.5548,599.13873 L 1127.559,596.33888 C 1127.1761,595.74003 1126.7816,595.13219 1126.3929,594.50352 C 1127.114,595.07125 1127.8234,595.64118 1128.1576,595.92184 C 1128.1935,595.95193 1128.2313,595.9786 1128.2671,596.00871 L 1137.7833,591.57122 C 1137.758,591.5144 1137.7295,591.45808 1137.7041,591.40129 C 1137.3693,590.61577 1137.0095,589.84437 1136.6778,589.05246 C 1138.0886,589.0947 1139.5019,589.13052 1140.9085,589.25194 C 1141.4074,589.30458 1141.9006,589.36857 1142.3998,589.41851 L 1150.415,585.68098 C 1151.0497,584.77478 1151.4042,583.85772 1151.0727,583.09855 C 1150.8353,582.55464 1150.4726,582.06145 1150.1217,581.57664 C 1153.4933,581.07067 1153.099,581.05522 1155.7931,574.58748 L 1142.2834,580.88714 C 1142.6936,581.67256 1143.0947,582.46412 1143.5193,583.24169 C 1141.509,583.13904 1139.4793,583.10286 1137.4687,583.1323 L 1111.5822,595.20333 z M 1157.6906,573.70263 C 1158.9585,574.8488 1160.2422,575.99301 1161.5258,577.12082 C 1162.8509,578.25019 1163.6784,579.0103 1164.3212,579.19643 L 1165.454,578.66816 C 1165.467,578.6496 1165.4844,578.63295 1165.4975,578.61342 C 1165.5045,578.62009 1165.5037,578.63507 1165.5107,578.64174 L 1190.8873,566.80843 C 1187.3919,566.41902 1183.9278,565.8576 1180.4742,565.18178 C 1180.4378,565.02634 1180.397,564.87288 1180.3611,564.71733 C 1184.3359,565.06702 1188.3133,565.49228 1192.2468,566.1745 L 1207.5124,559.05603 C 1207.4596,558.72833 1207.3994,558.39314 1207.3918,558.3537 C 1207.0177,556.41713 1206.4681,554.5229 1205.8983,552.63676 C 1205.759,552.16294 1205.6469,551.80224 1205.5267,551.39631 L 1157.6906,573.70263 z M 1207.226,550.6039 C 1208.6787,551.17547 1210.1085,551.82939 1211.5223,552.49682 C 1212.3404,553.68074 1213.154,554.86619 1213.9982,556.03167 L 1231.0481,548.08116 C 1228.9435,546.19024 1226.8657,544.31766 1224.9197,542.62904 C 1225.6853,542.76806 1226.4516,542.89154 1227.2153,543.04127 C 1228.4408,543.27731 1229.6616,543.506 1230.887,543.74276 C 1230.843,545.16721 1230.974,546.65495 1231.133,548.04154 L 1236.1744,545.69073 C 1236.0839,545.18266 1236.0041,544.71297 1236.0011,544.35783 C 1235.9513,543.90327 1235.8966,543.44232 1235.8429,542.98341 C 1236.7896,543.48381 1237.7004,544.02658 1238.6384,544.54173 L 1256.7079,536.11578 C 1255.196,535.42714 1253.7212,534.67405 1252.238,533.92452 C 1251.6485,532.94666 1251.0691,531.96873 1250.5153,530.96948 C 1250.4178,530.78332 1250.3653,530.69845 1250.2757,530.52953 L 1218.5549,545.32117 C 1219.0914,545.73892 1219.6396,546.14262 1220.1705,546.56765 C 1219.7252,547.11577 1219.2948,547.60513 1218.943,548.00208 C 1218.9009,547.98703 1218.8604,547.97162 1218.8184,547.95673 C 1218.1918,547.7348 1217.5692,547.45247 1216.9515,547.20669 C 1216.531,547.02309 1216.1149,546.8393 1215.6943,546.65506 L 1207.226,550.6039 z M 1256.2233,527.7561 C 1256.3914,527.81883 1256.5338,527.84234 1256.6575,527.72602 C 1256.8118,527.58092 1256.8986,527.5094 1257.0446,527.3731 L 1256.2233,527.7561 z M 1257.9793,526.93728 C 1259.0731,527.71015 1260.1426,528.54277 1261.271,529.26412 C 1262.6024,530.19851 1264.0066,531.31201 1265.5444,531.99525 L 1270.7274,529.5784 C 1270.9701,529.31435 1271.1938,529.0479 1271.377,528.82722 C 1271.4846,528.86326 1271.6075,528.91823 1271.7092,528.94814 C 1271.7974,528.97406 1271.8841,528.97674 1271.9735,528.9973 L 1274.2393,527.94076 C 1274.4655,527.5282 1274.7079,527.12289 1274.9438,526.71573 C 1274.9507,526.72287 1274.9502,526.73691 1274.957,526.74405 C 1274.8994,527.02566 1274.8085,527.30534 1274.6831,527.56143 C 1274.6516,527.62573 1274.5579,527.73175 1274.4942,527.8219 L 1275.089,527.54455 C 1275.1959,527.428 1275.2992,527.30627 1275.4062,527.18973 C 1275.4522,527.23747 1275.4961,527.28556 1275.5421,527.33325 L 1287.1259,521.93166 C 1287.0726,521.40386 1287.0188,520.87035 1286.9621,520.2495 C 1286.9259,519.7007 1286.8958,519.25798 1286.8625,518.77882 C 1287.8052,519.4429 1288.7445,520.08696 1289.7032,520.72983 L 1296.3872,517.61303 C 1304.3573,513.89649 1313.6175,517.00005 1317.1537,524.58354 L 1357.1572,610.37124 C 1360.6934,617.95472 1357.1185,627.04337 1349.1484,630.75989 L 1325.2446,641.90644 C 1325.8,642.85099 1326.2727,643.7947 1326.5859,645.00485 C 1326.6197,645.1351 1326.6233,645.32215 1326.6141,645.50893 C 1325.7293,645.73613 1324.8692,646.04904 1323.9671,646.19156 C 1322.4093,646.43762 1320.7774,646.51413 1319.151,646.43745 C 1319.9304,645.78284 1320.6151,644.80174 1321.2228,643.78181 L 1299.0183,654.13596 C 1299.2283,654.17294 1299.4326,654.1798 1299.6489,654.08329 C 1299.7918,654.01949 1299.8799,653.9739 1300.017,653.9116 C 1300.238,654.264 1300.4574,654.41454 1300.6815,654.15344 C 1300.9328,653.86061 1301.171,653.53996 1301.4199,653.22293 C 1301.6336,653.11786 1301.9043,653.00658 1302.0997,652.90597 C 1301.4272,653.9474 1300.6952,655.59647 1299.1135,657.81547 C 1299.1055,657.84292 1299.0907,657.871 1299.0833,657.89853 C 1298.476,657.05575 1297.8897,656.20147 1297.2792,655.36068 C 1297.2069,655.25681 1297.1364,655.15107 1297.0641,655.04723 L 1287.5195,659.49793 C 1287.579,659.98865 1287.6417,660.63161 1287.6758,660.94221 C 1287.8165,662.22612 1287.9683,663.49811 1288.0881,664.78417 C 1287.8464,664.64061 1287.649,664.53726 1287.4274,664.40262 C 1287.2447,663.83338 1287.0551,663.26527 1286.8729,662.69581 C 1286.8136,662.66843 1286.7529,662.6344 1286.6936,662.60703 C 1286.7299,662.56437 1286.772,662.52648 1286.8088,662.48435 C 1286.5627,661.71462 1286.3202,660.94153 1286.0751,660.17148 L 1269.45,667.92388 C 1269.5178,668.04078 1269.583,668.16223 1269.65,668.27886 C 1270.5569,669.85612 1271.4449,671.44071 1272.3445,673.02202 C 1272.3131,673.0666 1272.3029,673.11461 1272.2708,673.15981 C 1271.5919,673.06834 1270.6903,672.9351 1270.2792,672.8817 C 1269.5243,672.77117 1268.7781,672.66613 1268.0233,672.55443 C 1268.2055,672.2134 1268.3997,671.87187 1268.6107,671.52194 C 1268.7874,671.22904 1268.4737,670.83743 1268.443,670.49677 C 1268.4024,670.04677 1268.4197,669.59058 1268.3962,669.13937 C 1268.3835,668.9012 1268.38,668.66379 1268.3738,668.42574 L 1263.7856,670.56525 C 1263.7842,670.58852 1263.785,670.61183 1263.7837,670.6351 C 1263.3924,670.80239 1263.0679,671.19968 1262.7035,671.79394 C 1262.3093,671.73884 1261.914,671.67658 1261.5198,671.62179 L 1251.6354,676.23097 C 1251.6584,676.23378 1251.6822,676.23007 1251.7052,676.23288 C 1251.1819,677.16738 1251.0475,677.95924 1251.0322,679.37412 C 1250.4656,680.00491 1249.9008,680.62992 1249.5176,681.08032 C 1249.4872,681.06422 1249.4187,681.04754 1249.3931,681.03497 C 1248.279,680.31183 1247.1845,679.5632 1246.0843,678.81951 L 1213.6271,693.95452 C 1214.849,694.41727 1216.0723,694.85372 1217.2797,695.35452 C 1217.3722,695.44449 1217.4569,695.55215 1217.5515,695.64156 C 1217.1403,696.45809 1216.9898,697.1612 1217.0543,697.97672 C 1216.0692,697.35772 1215.0656,696.76345 1214.0701,696.16159 C 1213.6688,695.9153 1212.6211,695.26526 1211.8145,694.79976 L 1148.9111,724.13211 C 1149.5723,726.04705 1150.2323,727.94225 1150.9219,729.84921 C 1150.4025,730.51245 1149.8954,731.19106 1149.3713,731.84802 C 1149.2496,731.97391 1149.1334,732.11979 1149.0106,732.25758 C 1148.9368,732.20033 1148.8653,732.14133 1148.7917,732.08383 C 1138.4046,723.97556 1148.8685,731.96381 1142.5669,727.09044 L 1008.0368,789.82287 C 1008.2659,790.40607 1008.5116,790.98007 1008.7443,791.56177 C 1008.4619,791.95227 1008.2202,792.33927 1008.0133,792.73017 C 1007.5965,792.59377 1007.1633,792.45747 1006.7372,792.35977 C 1006.4755,792.35207 1006.2295,792.31297 1005.9689,792.33877 C 1005.6353,792.37177 1005.3252,792.43387 1005.0268,792.53677 C 1004.63,792.28297 1004.2327,792.04447 1003.8452,791.77747 L 989.2876,798.56577 C 989.03881,798.68177 988.78911,798.77797 988.53801,798.88077 C 988.72963,799.14687 988.92769,799.41207 989.11736,799.67957 L 987.54789,801.85957 C 987.70608,801.99717 987.84518,802.16207 987.99707,802.30527 C 987.86735,802.22837 987.74208,802.14847 987.61201,802.07107 C 987.58901,802.00117 987.57129,801.92927 987.54789,801.85957 C 987.49779,801.71037 987.45848,801.55697 987.40643,801.40837 C 987.14643,800.83247 986.91752,800.11887 986.50646,799.55227 C 979.26517,801.49427 971.65415,798.31417 968.52107,791.59527 L 928.51761,705.80754 C 926.54158,701.56995 926.78156,696.87397 928.77251,692.89639 C 928.1108,693.03994 927.48438,693.28186 926.90706,693.62834 C 926.70513,694.25292 926.52039,694.8079 926.33077,695.27629 C 926.28018,694.87091 926.2647,694.46571 926.28016,694.05859 C 925.51648,694.61252 924.80619,695.30577 924.11607,695.99869 C 924.23618,695.57189 924.35948,695.08515 924.53373,694.52816 C 924.83172,694.00622 925.13026,693.49346 925.42904,692.97281 C 925.50806,692.83512 925.1632,693.14021 925.03063,693.22755 C 925.00243,693.24079 924.97387,693.25397 924.94566,693.26717 C 924.95653,693.23508 924.96484,693.21657 924.97589,693.18412 C 925.12265,692.753 924.18376,693.53656 923.77125,693.78033 C 922.40872,694.38624 921.02924,694.95368 919.61553,695.44233 C 918.83934,699.73108 919.30865,704.24904 921.27303,708.46165 L 922.28995,710.64245 C 923.15675,710.48546 924.04601,710.15296 924.91421,710.28075 C 925.02887,710.29763 924.79161,710.48747 924.69703,710.55443 C 924.2149,711.45329 924.74489,712.29394 925.76693,712.33124 C 926.02894,712.34081 926.29222,712.27402 926.55232,712.24086 C 926.58238,712.23309 926.60727,712.2092 926.63728,712.20124 C 926.93337,712.55886 927.22736,712.91103 927.51672,713.27381 C 927.74783,713.77723 927.98494,714.27176 928.21668,714.77489 C 927.33927,715.75802 926.47106,716.75886 925.60486,717.75131 L 926.38407,719.42231 C 927.26173,718.44844 928.14063,717.47247 929.0223,716.50254 C 929.18809,716.86384 929.35922,717.21708 929.52416,717.57878 C 929.64337,717.83318 929.76141,718.08913 929.88074,718.34347 C 929.68586,718.621 929.48682,718.91846 929.35567,719.14 C 929.18198,718.93775 928.99515,718.73097 928.82725,718.5244 C 928.25888,719.29806 927.64563,720.04242 927.01799,720.78177 L 961.83118,795.43887 C 967.03433,806.59707 980.55522,811.22337 992.15126,805.81607 L 1021.0965,792.31867 C 1021.0789,792.06997 1021.0761,791.82557 1021.0608,791.57677 C 1021.1341,791.50287 1021.1938,791.41827 1021.2629,791.34457 C 1021.6894,791.44677 1022.1134,791.54577 1022.5409,791.64517 L 1037.0701,784.87005 C 1036.8024,784.42006 1036.562,783.95315 1036.2682,783.51998 C 1036.0903,783.25769 1035.7205,782.78584 1035.4322,782.39266 C 1035.6099,781.89377 1035.7269,781.35028 1035.8253,780.79563 C 1036.1798,780.97939 1036.5323,781.16936 1036.8862,781.36986 C 1037.9362,782.01302 1038.8876,782.81077 1039.8457,783.57578 L 1047.4644,780.02314 C 1047.7419,779.61322 1048.0365,779.21515 1048.3086,778.80193 C 1048.3721,778.70553 1048.4471,778.36652 1048.5279,777.94112 C 1049.2623,777.12356 1049.7727,776.04122 1050.4376,774.05076 C 1051.0864,774.40252 1051.7364,774.74873 1052.38,775.11044 C 1052.915,775.36457 1053.73,775.81454 1054.3582,775.8775 C 1054.9309,775.93486 1055.588,775.77735 1055.9273,775.2493 C 1057.2482,773.19294 1058.1598,771.97891 1058.7943,771.11946 C 1060.3998,771.59675 1062.0162,772.05162 1063.6363,772.48205 L 1073.0959,768.07097 C 1073.0077,768.05676 1072.9197,768.03641 1072.8316,768.02181 C 1072.9218,767.6307 1072.979,767.23028 1073.0736,766.84007 C 1073.0996,766.73251 1073.1397,766.6285 1073.1662,766.52104 C 1073.2413,766.52471 1073.344,766.53826 1073.4173,766.54188 C 1073.5589,766.64921 1073.6997,766.75446 1073.8419,766.86106 C 1073.9499,767.09686 1074.0663,767.3323 1074.1721,767.56911 L 1090.344,760.02802 C 1090.322,759.91202 1090.3054,759.79291 1090.2837,759.67685 C 1090.6061,759.48051 1090.9252,759.27971 1091.2505,759.08812 C 1091.9458,758.67862 1092.6498,758.29891 1093.3521,757.90126 C 1093.5515,758.04511 1093.7409,758.20779 1093.941,758.35075 L 1151.3216,731.59373 C 1151.38,731.52074 1151.4368,731.44762 1151.4953,731.37479 C 1151.5093,731.41391 1151.5342,731.44894 1151.5482,731.48808 L 1156.6745,729.09764 C 1156.3592,728.24545 1156.0361,727.39438 1155.7237,726.54117 C 1155.9474,726.30619 1156.1732,726.07841 1156.3998,725.84663 C 1157.1752,726.0298 1157.954,726.19212 1158.7349,726.34383 C 1159.4996,726.49237 1160.4054,727.09635 1161.072,726.77118 C 1161.1435,726.83062 1161.2194,726.88555 1161.291,726.94493 L 1170.7789,722.52065 C 1170.3077,721.87015 1169.8365,721.21295 1169.3786,720.55306 C 1169.8613,721.08837 1170.3255,721.63245 1170.8167,722.15818 C 1170.9429,722.23736 1171.0351,722.27834 1171.1471,722.34896 L 1173.8943,721.0679 C 1174.0837,720.56307 1174.3412,719.95846 1174.616,719.21421 C 1174.9712,719.58205 1175.3092,719.91899 1175.6503,720.24907 L 1182.3343,717.13226 C 1182.6345,716.47334 1182.8488,716.02613 1183.0484,715.55798 C 1183.5484,715.71147 1184.0283,715.905 1184.5151,716.11534 L 1250.364,685.40948 C 1250.2852,685.36836 1250.2086,685.31867 1250.13,685.27726 C 1250.2678,685.12619 1250.4076,685.01996 1250.5322,684.88281 C 1250.7609,684.95888 1250.9803,685.0241 1251.1854,685.02648 L 1252.6581,684.33972 C 1253.3412,683.65692 1253.8617,682.55734 1254.36,681.40835 C 1254.6746,681.973 1254.9841,682.53979 1255.2921,683.11149 L 1265.2331,678.4759 C 1265.0938,678.3909 1264.9449,678.31316 1264.8065,678.22657 C 1264.6968,678.15522 1264.702,678.14666 1264.6008,678.08114 C 1264.9538,678.14264 1265.3054,678.21414 1265.658,678.27779 L 1294.2916,664.9257 C 1294.3947,664.69049 1294.4744,664.54063 1294.5277,664.47079 C 1294.5073,664.37886 1294.4855,664.28161 1294.4655,664.18948 C 1294.6514,664.32181 1294.8448,664.44603 1295.028,664.58232 L 1303.0715,660.83158 C 1303.1444,660.74069 1303.2156,660.64864 1303.2887,660.55791 C 1303.28,660.60001 1303.2572,660.68459 1303.2131,660.76555 L 1304.0344,660.38255 C 1304.0748,660.31983 1304.1109,660.2526 1304.1515,660.19002 C 1304.1506,659.73201 1304.111,659.30132 1304.0764,658.84583 C 1305.8701,658.58812 1306.8473,657.71951 1307.3677,656.587 C 1307.9061,657.04887 1308.3825,657.61753 1308.9058,658.11098 L 1318.0539,653.84518 C 1317.9677,653.68898 1317.8755,653.50946 1317.7878,653.34858 C 1318.0839,653.41895 1318.3811,653.4836 1318.677,653.55463 L 1352.8901,637.60079 C 1359.0505,634.72814 1363.3698,629.60908 1365.3051,623.7776 C 1365.22,623.58673 1365.1262,623.40197 1365.041,623.21116 C 1365.2042,623.17125 1365.3698,623.12455 1365.5337,623.08482 C 1367.0081,618.12033 1366.7618,612.7043 1364.4301,607.70392 L 1334.9128,544.40399 C 1333.7125,543.94296 1332.525,543.47966 1331.3301,543.0059 C 1330.0169,540.62135 1328.7059,538.22773 1327.4016,535.83834 C 1328.0575,536.75304 1328.4518,537.33439 1328.8114,537.45667 C 1328.8337,537.49341 1328.8704,537.51989 1328.8925,537.55675 C 1329.023,537.77408 1329.0869,538.47891 1329.2227,538.2648 C 1329.8584,537.26205 1330.4015,536.45364 1330.8848,535.76574 L 1323.8719,520.72669 C 1321.6022,515.85927 1317.7577,512.22151 1313.1727,510.13064 C 1312.8777,510.2707 1312.6007,510.41152 1312.3645,510.54196 C 1312.0266,510.20445 1311.681,509.87328 1311.3435,509.53541 C 1311.2737,509.46477 1311.2094,509.39079 1311.1397,509.32014 C 1311.1257,509.31532 1311.1121,509.3098 1311.0981,509.30502 C 1305.618,507.42959 1299.3499,507.64585 1293.5518,510.34951 L 1293.127,510.54761 C 1293.1579,510.65767 1293.1572,510.63818 1293.1911,510.75907 C 1293.5317,512.21806 1293.9137,513.69444 1294.2735,515.1506 C 1294.1453,515.06814 1293.9836,515.00936 1293.8601,514.9296 C 1292.4761,514.03576 1291.1637,513.05896 1289.8417,512.0796 L 1283.3276,515.11717 C 1282.5961,516.62972 1282.1118,517.94668 1282.1034,517.96374 C 1281.7839,518.61128 1282.0681,519.42233 1282.0857,520.14423 C 1282.1249,521.74949 1282.2,522.82197 1282.2998,524.07864 C 1281.3781,523.26217 1280.5115,522.40311 1279.6575,521.5179 C 1279.7062,521.25586 1279.7841,520.98358 1279.8182,520.75335 C 1280.0252,519.35736 1280.1156,517.96209 1280.2405,516.55671 L 1257.9793,526.93728 z M 926.28016,694.05859 C 926.48793,693.90788 926.69022,693.75847 926.90706,693.62834 C 927.02806,693.25408 927.15333,692.86043 927.27555,692.42209 C 927.43986,691.83272 926.30152,693.34945 926.26886,693.96042 C 926.26712,693.99301 926.28139,694.02601 926.28016,694.05859 z M 1286.8088,662.48435 C 1286.8312,662.55443 1286.8505,662.62572 1286.8729,662.69581 C 1286.886,662.70186 1286.9013,662.70488 1286.9144,662.71093 C 1286.8794,662.63227 1286.8654,662.41954 1286.8088,662.48435 z M 1283.3497,516.86536 C 1283.2648,516.97517 1283.1769,517.08725 1283.0891,517.19377 C 1282.9906,517.31318 1283.1688,517.03953 1283.3497,516.86536 z M 990.63106,653.70711 C 990.96567,653.89945 991.30618,654.10595 991.63524,654.30775 C 991.34278,654.27833 991.04971,654.23078 990.7574,654.19988 C 990.74656,654.1171 990.73301,654.06385 990.7216,653.97521 C 990.69758,653.88393 990.65596,653.79838 990.63106,653.70711 z M 977.16614,661.95129 C 977.16352,661.98968 977.16038,662.0254 977.14912,662.06267 C 977.10453,662.21021 976.74811,662.54689 976.83185,662.4175 C 976.93477,662.25851 977.05956,662.10816 977.16614,661.95129 z M 1171.2952,572.11704 C 1171.3413,572.23555 1171.369,572.36812 1171.3687,572.49653 C 1171.368,572.75922 1170.6329,573.21369 1170.7267,572.96831 C 1170.8098,572.75085 1170.9019,572.53026 1171.0101,572.31896 C 1171.1061,572.24698 1171.2011,572.19174 1171.2952,572.11704 z M 1235.3444,543.3193 C 1235.3904,543.46103 1235.4456,543.59727 1235.433,543.65726 C 1235.3832,543.89424 1234.688,544.18438 1234.7816,543.96102 C 1234.8243,543.85924 1234.8671,543.75708 1234.9158,543.65711 C 1235.0637,543.54757 1235.201,543.43502 1235.3444,543.3193 z M 934.31607,683.93248 C 934.74073,683.95518 935.16226,683.96772 935.5866,683.99515 C 935.70821,684.1211 935.81797,684.25645 935.93952,684.38227 C 935.09109,684.558 934.25318,684.75197 933.4077,684.94223 C 933.96233,684.47467 934.25165,684.23471 934.31607,683.93248 z M 1082.769,615.63871 C 1082.8342,615.65463 1082.3602,616.47376 1082.0702,616.65418 C 1081.9942,616.70144 1081.8979,616.74179 1081.8153,616.77305 C 1082.0942,616.39306 1082.3789,616.03902 1082.6973,615.70665 C 1082.731,615.67142 1082.7597,615.63643 1082.769,615.63871 z M 920.59398,700.05471 C 920.6361,700.04244 920.67845,700.04241 920.72047,700.03021 C 920.58371,700.18263 920.45007,700.33889 920.31633,700.49451 C 920.41515,700.35214 920.49524,700.19714 920.59398,700.05471 z M 921.76839,699.54156 C 921.81031,699.53079 921.84211,699.49907 921.88168,699.48873 C 921.72222,699.69619 921.57919,699.91341 921.41708,700.11914 C 921.53628,699.92833 921.64918,699.73238 921.76839,699.54156 z M 969.07015,690.13875 C 964.04404,692.48252 960.92534,696.1332 959.66904,701.10835 C 958.82328,704.425 958.92524,708.01908 959.93394,711.88068 C 960.09163,712.1773 960.2482,712.4676 960.41321,712.76057 C 960.48018,712.87954 960.54562,712.99697 960.61322,713.11555 C 960.92607,713.93743 961.25835,714.78322 961.50174,715.39071 C 961.07313,714.54217 960.61676,713.71423 960.18663,712.86623 C 960.6649,714.46995 961.28808,716.11563 962.07872,717.81115 C 964.9505,723.96972 968.70613,728.15778 973.32489,730.39342 C 974.15484,730.79274 974.98451,731.14701 975.82793,731.39851 C 976.27423,730.7414 976.72839,730.0855 977.19533,729.45062 C 977.67816,730.28034 978.16582,731.11777 978.66525,731.93739 C 981.62234,732.23839 984.64096,731.66796 987.7578,730.21455 C 988.42381,729.90399 989.07779,729.55305 989.68752,729.17678 C 989.00877,728.02182 988.32174,726.87348 987.65718,725.71003 C 988.26115,724.91851 988.7949,724.08706 989.33246,723.23929 C 989.39268,723.44129 989.45127,723.6434 989.51163,723.84535 C 989.62119,724.21192 990.36627,727.20082 991.05462,728.26345 C 991.48147,727.94136 991.90418,727.59437 992.29903,727.23492 C 993.62338,726.02931 994.75595,724.62382 995.74189,723.00897 L 995.59661,722.69743 C 995.55496,722.75591 995.52256,722.76781 995.47012,722.72193 C 995.49879,722.68551 995.52821,722.64879 995.55699,722.61246 L 995.16079,721.7628 C 995.11345,721.83201 995.06267,721.8993 995.01536,721.96853 C 994.94924,721.83853 994.9173,721.74238 994.83046,721.57203 C 994.36052,720.65007 994.00514,719.68218 993.63628,718.71531 C 993.50912,718.38199 993.39688,718.04695 993.27221,717.71274 L 992.01756,715.02213 C 991.16296,716.95379 990.17817,718.51043 989.05031,719.7504 C 987.92242,720.99043 986.59106,721.96608 985.04147,722.68865 C 982.26564,723.98305 979.53778,723.88969 976.88592,722.35398 C 974.23404,720.81833 971.98039,718.04535 970.1222,714.06041 C 968.25594,710.05824 967.58839,706.56667 968.11659,703.54809 C 968.64478,700.52958 970.31348,698.35157 973.0893,697.05714 C 974.6389,696.33459 976.24206,695.94184 977.91696,695.87486 C 979.59184,695.80796 981.43049,696.08245 983.45954,696.6694 L 979.73522,688.68256 C 977.8785,688.40198 976.08868,688.38486 974.32646,688.61867 C 974.24233,688.80807 974.1543,688.99645 974.07332,689.18496 C 973.98656,689.01871 973.89419,688.85454 973.80727,688.68837 C 972.19845,688.95099 970.60395,689.42359 969.07015,690.13875 z M 987.72473,682.30199 C 987.76895,682.43042 987.82407,682.5549 987.8681,682.68339 C 987.76298,682.67772 987.68163,682.72629 987.57167,682.78713 C 987.4162,682.87314 987.30744,682.93008 987.16004,683.01356 C 987.14367,682.85742 987.10966,682.77194 987.00904,682.91157 C 986.92646,683.02616 986.84592,683.15343 986.76163,683.2683 C 986.3138,683.52861 985.83801,683.80561 985.4682,684.04384 L 1002.3597,720.26783 C 1002.3388,720.17414 1002.3185,720.0802 1002.2975,719.98652 C 1003.4436,720.19685 1004.5769,720.58849 1005.6539,720.97298 L 1011.0067,718.47689 L 1004.192,703.86268 L 1006.3728,702.84575 C 1007.6395,702.25515 1008.8075,702.12515 1009.8919,702.48054 C 1010.9898,702.8297 1012.3646,703.80261 1014.0067,705.38909 L 1020.4501,711.5908 C 1021.1444,710.68476 1021.7545,709.72037 1022.1104,708.6443 C 1022.442,707.64147 1021.0868,706.79905 1020.5499,705.88942 C 1020.2809,705.43367 1020.42,705.65444 1020.1895,705.26443 C 1022.1444,704.41679 1023.3363,703.72409 1023.898,703.08691 L 1021.133,700.41096 C 1019.2329,698.58776 1017.587,697.31905 1016.2313,696.62809 C 1014.881,695.91364 1013.5896,695.652 1012.3802,695.83782 C 1013.9586,694.15676 1014.8588,692.2637 1015.0514,690.17874 C 1015.2574,688.08753 1014.7544,685.77084 1013.5639,683.21768 C 1011.8424,679.52605 1009.6671,677.2526 1007.0112,676.41182 C 1004.3687,675.56486 1001.0461,676.09021 997.07103,677.94374 L 987.72473,682.30199 z M 1017.0381,668.63293 L 1019.4946,673.90085 C 1019.4753,671.78791 1019.4191,669.67289 1019.3322,667.56318 L 1017.0381,668.63293 z M 1023.2973,665.71423 C 1023.1154,666.27607 1022.9284,666.92298 1022.7134,667.64158 C 1022.413,668.01657 1022.1243,668.38168 1021.8031,668.72118 C 1021.727,668.80165 1022.0286,668.70882 1022.1392,668.7024 C 1022.207,668.77333 1022.2751,668.84675 1022.343,668.91768 C 1022.2629,669.19215 1022.1975,669.38628 1022.1124,669.68032 C 1021.8775,670.49293 1022.9134,671.16869 1023.3238,671.90837 C 1023.8192,672.80136 1024.3135,673.70266 1024.8163,674.59149 C 1024.5013,675.00988 1024.203,675.43972 1023.9419,675.89576 C 1023.6603,676.38745 1024.4024,676.95335 1024.6116,677.47989 C 1024.8984,678.20176 1025.1799,678.91245 1025.4473,679.64176 C 1025.2631,679.93996 1025.0748,680.22833 1024.892,680.52135 C 1024.6438,680.91903 1025.0427,681.45934 1025.1615,681.9128 C 1025.6295,683.69841 1026.5815,686.35846 1027.1345,687.99236 C 1028.2096,691.05771 1029.2722,694.11702 1030.3506,697.18163 L 1035.0522,707.2643 L 1039.5838,705.15121 C 1039.1574,703.79192 1038.7018,702.43104 1038.2691,701.07489 C 1037.8734,699.83456 1037.4759,698.59337 1037.0846,697.35164 C 1037.2565,697.11061 1037.4318,696.86381 1037.6078,696.62495 C 1037.8272,696.46375 1038.0784,696.28498 1038.2781,696.13997 C 1040.179,698.46702 1042.0895,700.78351 1044.0303,703.07774 L 1053.5182,698.65346 C 1052.2429,696.25909 1050.974,693.84364 1050.1031,692.14303 C 1049.9557,691.85527 1049.8115,691.56666 1049.6654,691.27825 L 1039.3278,696.09874 L 1035.2073,687.26224 L 1047.6407,681.46445 L 1044.1277,673.93076 L 1031.6943,679.72856 L 1028.3397,672.53474 L 1041.5661,666.36716 L 1038.0531,658.83347 L 1036.3821,659.61267 C 1036.8151,659.91474 1037.2461,660.21549 1037.6713,660.52868 C 1037.8581,660.83248 1038.0428,661.13711 1038.2336,661.4388 C 1038.7515,662.94092 1039.2411,664.46044 1039.718,665.95316 C 1039.5366,666.18984 1039.3705,666.43885 1039.1949,666.67984 C 1039.0182,666.781 1038.8449,666.89237 1038.6832,666.98742 C 1038.1389,665.60978 1037.6023,664.22464 1037.091,662.83361 C 1036.8371,662.14282 1036.4035,660.92453 1036.0139,659.78436 L 1023.2973,665.71423 z M 1052.9222,651.89989 L 1052.9355,651.92821 L 1056.885,677.2572 C 1057.1854,677.9611 1057.495,678.64615 1057.7924,679.35113 C 1057.8431,679.73689 1057.8862,680.02173 1058.0868,679.83451 C 1058.338,679.60015 1058.5925,679.36931 1058.8195,679.11356 C 1060.1601,680.38359 1061.4968,681.66078 1062.8396,682.92826 C 1062.9389,683.02199 1063.9368,683.95502 1064.7345,684.69965 C 1065.3725,685.94091 1066.034,687.17541 1066.6741,688.41558 C 1066.8194,688.70489 1066.9665,688.99108 1067.1119,689.28036 L 1066.2317,684.13939 L 1078.3819,678.47367 L 1083.568,684.64102 L 1091.3849,680.99594 L 1062.2119,647.56805 L 1054.2817,651.26596 C 1054.6098,651.84726 1054.9373,652.43305 1055.2686,653.01255 C 1054.8545,652.4604 1054.3812,651.80144 1054.1891,651.58499 C 1054.1443,651.53445 1054.0819,651.45845 1054.0268,651.38483 L 1052.9506,651.88668 C 1052.9444,651.8942 1052.9284,651.8924 1052.9222,651.89989 z M 1070.5386,643.68525 L 1074.0516,651.21893 L 1084.0776,646.54372 L 1097.7467,675.85711 C 1098.1112,675.5756 1098.4641,675.28319 1098.8325,675.006 C 1098.8485,675.12574 1098.8569,675.24977 1098.8645,675.37037 C 1098.9382,675.19426 1098.9866,675.00632 1099.061,674.83049 C 1100.4717,673.76963 1101.9013,672.71556 1103.1511,671.47504 C 1103.4575,671.17095 1103.3491,670.60255 1103.2704,670.1781 C 1103.2158,669.88311 1103.154,669.59396 1103.0706,669.30584 C 1104.0073,670.57364 1104.9596,671.83474 1105.9315,673.0749 L 1091.8662,642.91184 L 1093.7638,642.02698 C 1093.5863,641.77833 1093.4166,641.5202 1093.2392,641.27168 C 1093.1604,641.17128 1093.1002,641.06096 1093.0241,640.95823 C 1093.4432,641.23681 1093.8584,641.50487 1094.2736,641.78926 L 1101.8639,638.24983 L 1098.3509,630.71615 L 1070.5386,643.68525 z M 1098.8645,675.37037 C 1098.6516,675.87914 1098.4402,676.39296 1098.2354,676.90503 L 1098.2618,676.96167 C 1098.4245,676.7768 1098.8761,675.96894 1098.872,675.60824 C 1098.8711,675.52947 1098.8694,675.44875 1098.8645,675.37037 z M 1102.3443,628.85399 L 1116.6209,659.4702 C 1117.2158,659.19163 1117.7303,658.92088 1118.1673,658.64565 C 1118.9751,660.83329 1119.7043,663.04656 1120.3346,665.28974 C 1119.9656,665.21769 1119.6093,665.14181 1119.2359,665.07798 L 1120.3584,667.48536 L 1141.0902,657.81796 C 1139.6497,655.75327 1138.2169,653.68969 1136.7858,651.61878 C 1136.6176,651.37607 1136.4421,651.13484 1136.2744,650.89179 L 1124.634,656.3198 L 1120.5135,647.4833 L 1132.9469,641.6855 L 1129.4339,634.15182 L 1117.0005,639.94961 L 1113.6459,632.7558 L 1121.916,628.8994 C 1121.6572,628.48781 1121.4008,628.08522 1121.1386,627.67583 C 1120.7221,627.02571 1120.3308,626.3291 1119.8497,625.72527 C 1119.7158,625.55714 1119.494,625.50606 1119.3136,625.38906 C 1118.9161,626.15445 1118.474,626.90281 1118.0217,627.64659 C 1113.384,623.50781 1113.3411,623.46952 1113.5316,623.63729 L 1102.3443,628.85399 z M 1119.3093,620.9431 C 1120.5162,622.11145 1121.7307,623.27939 1122.8084,624.38008 C 1123.4735,625.43707 1124.1378,626.49658 1124.8049,627.55231 L 1126.8724,626.58821 L 1123.3594,619.05453 L 1119.3093,620.9431 z M 1132.9322,614.59062 C 1133.2406,614.92116 1133.6887,615.36959 1133.9382,615.63869 C 1134.1166,615.83117 1134.3832,616.13212 1134.5761,616.34117 C 1134.0532,617.4131 1133.5396,618.50326 1132.9648,619.54066 C 1132.9831,619.63479 1133.0082,619.72795 1133.027,619.82197 C 1132.9534,619.89026 1132.8796,619.97147 1132.8249,620.05412 C 1132.7992,620.09289 1132.7637,620.1248 1132.738,620.16359 L 1148.6522,654.29174 L 1152.3341,652.57485 C 1150.11,650.44104 1147.9015,648.29778 1145.6869,646.15787 C 1145.765,645.50302 1145.8288,644.7413 1145.8651,643.73011 C 1145.8591,643.72888 1145.8578,643.70302 1145.8519,643.70179 C 1145.8769,642.99841 1145.8852,642.21312 1145.9035,641.29853 C 1145.9233,640.3141 1145.0651,639.63576 1144.2486,638.93253 C 1144.0253,638.22429 1143.7939,637.50965 1143.5658,636.8028 C 1145.2872,637.83027 1147.0237,638.81899 1149.7721,640.42558 C 1150.6364,640.91675 1151.4963,641.41597 1152.3599,641.90833 L 1146.9715,630.35291 C 1146.0582,630.35553 1145.5403,630.36368 1144.8741,630.3655 C 1143.4576,629.47747 1142.0901,628.55041 1140.6989,627.62307 C 1140.6881,627.58837 1140.6699,627.57233 1140.6593,627.5381 C 1142.3861,627.99706 1144.1158,628.46678 1145.8355,628.95176 C 1146.0553,629.20598 1146.2794,629.45713 1146.4998,629.71089 C 1146.6321,629.86683 1146.7599,630.02709 1146.8923,630.18297 L 1141.9397,619.56218 L 1144.7153,618.26791 C 1147.9089,616.77878 1150.8183,616.64078 1153.4223,617.8627 C 1156.0263,619.0847 1158.2249,621.58086 1160.0107,625.4105 C 1161.8045,629.25747 1162.3122,632.60355 1161.569,635.40729 C 1160.8393,638.20481 1158.8834,640.34903 1155.7034,641.83191 L 1153.8058,642.71677 C 1154.2808,642.98621 1154.7472,643.27099 1155.2234,643.53842 C 1156.3559,644.17451 1159.5456,645.98882 1161.6978,647.07066 C 1161.766,647.32667 1161.846,647.57551 1161.9146,647.83154 C 1163.8678,646.67432 1165.4018,645.54324 1166.4805,644.46113 C 1168.3501,642.56025 1169.6085,640.23223 1170.2923,637.4771 C 1170.8947,635.07502 1171.026,632.56291 1170.6514,629.96532 C 1170.2687,627.35054 1169.3853,624.5884 1168.0259,621.67297 C 1167.7717,621.12782 1167.4984,620.62541 1167.2296,620.11335 C 1167.2121,620.15328 1167.202,620.19807 1167.1843,620.23793 C 1167.0823,620.03458 1166.9777,619.84162 1166.9636,619.61675 C 1166.9704,619.61958 1166.9851,619.60073 1166.9919,619.60355 C 1165.9083,617.61618 1164.7126,615.88398 1163.4008,614.41648 C 1161.6517,612.45986 1159.643,610.94564 1157.4157,609.86303 C 1154.879,608.60971 1152.3066,608.11598 1149.6702,608.33723 C 1147.993,608.46332 1145.9037,608.98664 1143.434,609.90044 C 1143.4526,609.97828 1143.4507,610.04386 1143.4698,610.12511 C 1143.7812,610.68266 1144.1026,611.23121 1144.4171,611.78673 C 1144.3896,611.77554 1144.3615,611.7676 1144.334,611.75649 C 1144.0492,611.64142 1142.787,611.06681 1141.427,610.69842 C 1140.5988,611.04452 1139.7557,611.40881 1138.8516,611.83039 L 1132.9322,614.59062 z M 1145.8651,643.73011 C 1145.9855,643.75519 1146.1212,643.76799 1146.2407,643.7963 C 1146.6193,642.10874 1146.4906,642.67441 1145.8651,643.73011 z M 1176.8315,594.12005 L 1202.0111,629.41009 L 1210.9892,625.22353 L 1202.7033,593.33099 L 1218.3511,615.20482 C 1218.556,614.6911 1218.7271,614.21022 1218.9822,613.60031 C 1219.2905,612.86324 1218.5804,612.04014 1218.3466,611.27614 C 1218.2883,611.08538 1218.2117,610.9021 1218.1524,610.71161 C 1219.606,613.27068 1221.0873,615.83433 1222.5847,618.36827 C 1221.9228,618.00385 1221.2739,617.62331 1220.616,617.25196 C 1220.1469,617.048 1219.6773,616.71488 1219.2136,616.38878 L 1221.8932,620.1389 L 1230.8714,615.95234 L 1219.9661,574.00606 L 1212.8289,577.33418 C 1213.5729,578.57038 1214.3004,579.82016 1215.0197,581.07094 C 1214.7221,581.48075 1214.4467,581.882 1214.1339,582.27704 C 1214.0995,582.39121 1214.0502,582.49579 1214.013,582.60927 C 1213.9417,582.47046 1213.8582,582.33625 1213.7865,582.19764 L 1220.4507,607.95031 L 1202.1798,582.29994 L 1194.6745,585.79975 L 1202.5795,616.28382 L 1184.2802,590.64665 L 1176.8315,594.12005 z M 1225.0641,571.62883 L 1241.0443,605.89859 C 1242.4104,606.63883 1243.7603,607.37389 1245.1366,608.09352 C 1245.5481,608.30868 1245.9761,608.50813 1246.3919,608.715 L 1250.8668,606.62833 L 1248.9254,602.46497 C 1246.7167,601.49761 1243.7183,600.0034 1240.9917,598.61324 C 1239.5865,596.37454 1238.7811,595.08411 1238.5405,594.68762 C 1239.641,593.90937 1240.4642,593.22656 1241.0313,592.56071 C 1243.6193,595.63905 1246.1574,598.75125 1248.6612,601.89853 L 1232.8527,567.99696 L 1225.0641,571.62883 z M 1241.0443,605.89859 L 1243.0782,610.2602 L 1246.1653,608.82066 C 1244.4427,607.87686 1242.7374,606.89563 1241.0443,605.89859 z M 1236.9311,566.09517 L 1240.4441,573.62886 L 1250.4701,568.95364 L 1264.9712,600.05133 L 1272.7315,596.43266 L 1258.2304,565.33497 L 1268.2564,560.65976 L 1264.7434,553.12608 L 1256.9831,556.74474 C 1256.9831,556.92804 1257.0303,557.1217 1257.1076,557.30737 C 1257.094,557.46312 1257.0788,557.63889 1257.0659,557.80953 C 1256.7337,557.59871 1256.4082,557.37917 1256.0768,557.16736 L 1249.0812,560.42945 C 1249.3847,560.61792 1249.9498,560.97577 1250.1534,561.10185 C 1251.6602,562.03681 1253.176,562.9589 1254.691,563.88215 C 1254.6633,563.92606 1254.645,563.97602 1254.6173,564.01994 C 1254.3715,564.27586 1254.1165,564.5275 1253.8695,564.78243 C 1253.8568,564.77094 1253.8271,564.74994 1253.8148,564.73899 C 1253.4971,564.45574 1253.0591,563.68532 1252.7861,564.01185 C 1251.9484,565.01398 1251.4786,565.55829 1250.8938,566.23899 C 1250.2232,565.61544 1249.5324,565.01667 1248.8611,564.39393 C 1248.3068,563.36011 1247.7799,562.32797 1247.212,561.3011 L 1236.9311,566.09517 z M 1268.7368,551.26391 L 1282.8813,581.5969 C 1284.9402,583.4569 1287.0148,585.33276 1289.0757,587.19063 C 1289.0674,587.21901 1289.0821,587.23193 1289.0738,587.26049 C 1288.9962,587.52656 1288.9722,587.78858 1288.9961,588.05526 C 1288.4597,588.05112 1287.9461,588.02847 1287.4764,587.90189 C 1287.3952,587.88001 1287.321,587.86151 1287.2405,587.83952 C 1286.3305,586.86018 1285.4032,585.90433 1284.4529,584.96723 L 1286.7509,589.89528 L 1294.5395,586.26341 L 1286.9059,569.89322 L 1298.3764,564.54446 L 1306.0099,580.91465 L 1313.7985,577.28277 L 1296.8542,540.94549 C 1296.4656,540.19669 1296.0893,539.43921 1295.6995,538.69102 L 1287.9958,542.28328 L 1291.4032,549.59038 C 1291.7267,549.54326 1292.048,549.49442 1292.3717,549.44908 C 1292.6826,549.82827 1293.3757,550.71212 1293.7909,551.23543 C 1293.4662,551.861 1293.1831,552.4126 1292.9484,552.90407 L 1294.8634,557.01078 L 1283.3929,562.35954 L 1276.5254,547.63204 L 1268.7368,551.26391 z M 992.13725,680.45128 C 992.37652,680.81021 992.60772,681.17551 992.84867,681.53325 C 992.75058,681.66582 992.64285,681.78616 992.54461,681.9164 C 992.40043,681.43054 992.28323,680.93663 992.13725,680.45128 z M 993.49137,685.12985 C 993.63932,685.30969 993.78491,685.48599 993.88201,685.67179 C 994.46324,686.78396 995.01211,687.89861 995.58011,689.01762 C 995.52529,689.10634 995.48711,689.20416 995.43278,689.2932 C 995.11061,689.01872 994.78458,688.74456 994.46265,688.4698 C 994.15025,687.35328 993.81245,686.24395 993.49137,685.12985 z M 996.36038,687.06766 L 999.61743,685.54888 C 1001.2479,684.78863 1002.603,684.61185 1003.6576,685.04412 C 1004.7257,685.47017 1005.6415,686.56273 1006.4621,688.32231 C 1007.2906,690.09918 1007.5624,691.55347 1007.2103,692.66277 C 1006.8716,693.76583 1005.8703,694.70135 1004.2398,695.46162 L 1000.9828,696.98041 L 996.36038,687.06766 z M 1229.6228,579.77827 C 1231.0942,581.3177 1232.4492,582.79477 1233.4936,583.93842 C 1233.3156,584.37577 1233.1525,584.81898 1233.0515,585.28246 C 1232.9868,585.26874 1232.9328,585.2699 1232.8702,585.26353 C 1231.7859,583.43998 1230.695,581.60904 1229.6228,579.77827 z M 1061.7933,658.79705 L 1073.0864,672.21944 L 1064.8163,676.07583 L 1061.7933,658.79705 z M 1293.3038,557.807 C 1294.1151,558.39288 1295.273,559.07434 1296.8183,560.16789 C 1297.329,560.52917 1297.8441,560.88304 1298.3547,561.24444 C 1297.894,561.28702 1297.4281,561.33807 1296.9671,561.37429 C 1295.9401,560.49904 1294.9287,559.61431 1293.9076,558.73224 C 1293.709,558.42234 1293.5036,558.11614 1293.3038,557.807 z M 1074.52,669.89588 C 1075.1231,670.6286 1075.7363,671.35662 1076.3619,672.07127 C 1077.5906,672.98907 1078.1053,673.44752 1078.51,673.27637 C 1080.7703,676.1645 1082.9666,679.09231 1085.1489,682.04187 C 1085.1503,682.05969 1085.174,682.08077 1085.1754,682.09852 C 1085.0336,682.0223 1084.8741,681.96851 1084.7336,681.89072 C 1082.9493,680.90215 1081.2491,679.79131 1079.609,678.59108 C 1079.3707,678.33417 1079.1381,678.0762 1078.9032,677.81684 C 1078.0974,676.92715 1077.4031,676.11648 1076.748,675.3393 C 1076.0109,673.52121 1075.257,671.71403 1074.52,669.89588 z M 1000.4651,704.66959 C 1002.3266,707.44365 1004.1579,710.24035 1006.0395,713.00057 C 1006.2264,713.27486 1006.3972,713.63347 1006.5432,714.00696 C 1005.5595,713.73247 1004.5657,713.56415 1003.5907,713.59076 C 1003.0108,713.60657 1002.4296,713.83256 1001.8613,713.94894 C 1001.5772,714.12104 1001.3103,714.27582 1001.0229,714.44332 C 1000.4829,712.10361 999.93256,709.7558 999.36933,707.4218 C 999.72389,706.87609 1000.0912,706.32017 1000.5498,705.66453 C 1000.741,705.39123 1000.5546,705.0056 1000.4651,704.66959 z M 1010.674,700.97802 C 1010.9609,701.49599 1011.2265,702.03395 1011.5117,702.55276 C 1011.096,702.2222 1010.696,701.87208 1010.2811,701.54049 C 1010.4131,701.35243 1010.5497,701.17099 1010.674,700.97802 z M 1237.4435,595.44056 C 1237.4603,595.42966 1237.4833,595.42501 1237.5001,595.41414 C 1237.3048,595.76555 1237.0789,596.07991 1237.1941,595.86714 C 1237.2712,595.72487 1237.3615,595.58099 1237.4435,595.44056 z M 1094.7148,662.99597 C 1094.8984,663.45274 1095.2394,664.39753 1095.4316,664.90294 C 1095.048,664.42262 1094.6735,663.92857 1094.2974,663.43194 C 1094.4455,663.32125 1094.5691,663.17606 1094.7148,662.99597 z M 1057.8592,683.56112 L 1059.7774,695.73475 L 1063.1761,694.14993 C 1063.076,693.95623 1062.9693,693.76566 1062.8704,693.56837 C 1062.2061,692.24353 1061.5272,690.93275 1060.8534,689.61266 C 1059.8538,687.60064 1058.8471,685.57838 1057.8592,683.56112 z M 1167.4507,632.49225 C 1167.6232,632.74603 1167.8062,632.99143 1167.9753,633.24756 C 1168.0145,633.20799 1168.0511,633.1643 1168.0905,633.12488 C 1168.1502,633.22313 1168.2052,633.32445 1168.2641,633.42322 C 1168.3948,633.6427 1168.437,634.31396 1168.581,634.10295 C 1168.5942,634.08359 1168.6113,634.0676 1168.6245,634.04821 C 1168.7039,634.75951 1168.7801,635.46808 1168.8598,636.1797 C 1168.4755,635.98421 1168.0814,635.82627 1167.6857,635.6583 C 1167.7234,635.5714 1167.7682,635.48243 1167.8047,635.39592 C 1168.0982,634.70138 1167.3228,634.01465 1166.9105,633.33031 C 1167.13,632.99873 1167.2702,632.77419 1167.4507,632.49225 z M 1122.8163,655.30547 C 1124.3768,657.32407 1125.9441,659.34081 1127.5021,661.36129 C 1126.6777,662.15676 1126.0465,662.8952 1125.5664,663.64317 C 1125.2882,662.44736 1124.947,661.31041 1124.9195,661.22082 C 1124.3049,659.21782 1123.563,657.263 1122.8163,655.30547 z M 1051.7046,690.32736 C 1052.1927,691.06128 1052.6885,691.80808 1053.1821,692.53473 C 1054.1127,693.98948 1055.0398,695.43474 1055.9711,696.88901 C 1056.0657,697.03662 1056.1312,697.21718 1056.2088,697.39881 L 1056.5204,697.25353 L 1053.0074,689.71985 L 1051.7046,690.32736 z M 1136.8409,650.62766 C 1137.5549,651.03703 1138.3881,651.64485 1139.1305,651.76673 L 1138.2853,649.95411 L 1136.8409,650.62766 z M 1044.8673,694.44659 C 1045.036,694.60656 1045.1955,694.74791 1045.3599,694.83753 C 1045.4277,694.97856 1045.4903,695.12132 1045.558,695.26236 C 1045.3305,694.98991 1045.0935,694.72012 1044.8673,694.44659 z M 1027.2631,706.31051 C 1028.2308,707.40015 1029.2245,708.45997 1030.2375,709.50946 L 1030.464,709.40381 L 1027.2631,706.31051 z M 1026.5568,707.08811 C 1026.0371,707.35036 1025.3517,708.89784 1024.2615,712.2961 L 1028.7647,710.19622 C 1028.7443,710.16009 1028.7322,710.11909 1028.7119,710.08293 C 1028.6393,709.5022 1028.5172,709.0434 1028.1666,709.06142 C 1027.5179,707.80356 1027.055,706.83675 1026.5568,707.08811 z M 1009.5329,716.6471 C 1009.5691,716.75713 1009.6118,716.86249 1009.6498,716.97185 C 1008.3768,717.85842 1008.7762,717.55395 1009.5329,716.6471 z M 1104.2442,690.82615 C 1103.8456,691.01199 1103.4619,691.19909 1103.0962,691.39595 C 1104.5976,692.73556 1106.0822,694.09354 1107.5711,695.44678 C 1107.6198,695.42358 1107.6631,695.4039 1107.7127,695.38074 C 1108.9707,694.79417 1110.3707,694.34969 1111.9439,694.02838 C 1113.517,693.70718 1115.2074,693.5241 1117.0055,693.4956 L 1114.3245,687.74621 C 1112.4344,688.08272 1110.6648,688.51099 1108.9908,689.02651 C 1107.3112,689.52998 1105.7319,690.13239 1104.2442,690.82615 z M 1102.6411,691.67711 C 1100.2651,693.04037 1098.6059,694.65272 1097.7274,696.51997 C 1096.6624,698.78372 1096.7563,701.24021 1098.0141,703.93754 C 1099.0181,706.09063 1100.4488,707.5314 1102.287,708.22052 C 1102.9808,708.47682 1103.7562,708.62523 1104.6089,708.68939 C 1104.4287,708.24499 1104.2736,707.78859 1104.0864,707.34696 C 1104.3281,706.94509 1104.5737,706.55604 1104.8041,706.15025 C 1105.3589,706.87563 1105.916,707.60724 1106.2346,708.03478 C 1106.3543,708.19539 1106.4373,708.43446 1106.5383,708.68619 C 1107.4621,708.61707 1108.4597,708.46762 1109.5289,708.22265 L 1112.5251,707.54956 C 1114.3394,707.14536 1115.6329,707.0579 1116.3916,707.26374 C 1117.1623,707.46394 1117.7294,707.98824 1118.1242,708.83497 C 1118.5642,709.77846 1118.4968,710.69777 1117.9233,711.58367 C 1117.3498,712.46961 1116.3071,713.23383 1114.783,713.94448 C 1113.8637,714.37319 1112.8773,714.73306 1111.832,715.01026 C 1112.9699,716.58895 1114.1018,718.18325 1115.225,719.7725 C 1116.1045,719.4575 1116.9583,719.1022 1117.7985,718.71038 C 1120.3833,717.50505 1122.3289,716.14378 1123.6276,714.64749 C 1123.3156,714.03729 1122.9989,713.40608 1122.7389,712.88961 C 1122.8122,712.993 1122.8807,713.09973 1122.954,713.20307 C 1123.2795,713.65908 1123.5584,714.06354 1123.8145,714.45687 C 1124.2661,713.90776 1124.6287,713.32684 1124.91,712.73922 C 1126.0056,710.44649 1125.8618,707.82982 1124.4687,704.84208 C 1123.4083,702.56808 1121.96,701.10056 1120.1146,700.45903 C 1118.2692,699.81751 1115.6851,699.88173 1112.3912,700.68141 L 1110.9696,701.03402 C 1111.4641,702.09654 1111.9677,703.17181 1112.4619,704.23442 C 1112.2617,704.14166 1112.0652,704.0439 1111.9127,703.8699 C 1111.8415,703.78871 1111.7649,703.70907 1111.6956,703.6263 C 1111.7104,703.58406 1111.7109,703.58578 1111.7259,703.54324 C 1111.9036,703.03662 1111.1189,702.72949 1110.6822,702.34035 C 1110.4147,701.99483 1110.1522,701.64439 1109.8858,701.29801 L 1109.1401,701.47336 C 1107.5895,701.84301 1106.4496,701.97267 1105.7191,701.82727 C 1104.9951,701.66421 1104.4721,701.22355 1104.1337,700.49774 C 1103.6825,699.53009 1103.7355,698.62247 1104.3195,697.79057 C 1104.6822,697.27397 1105.2851,696.78242 1106.0662,696.28644 C 1104.9181,694.75007 1103.7743,693.22461 1102.6411,691.67711 z M 1131.1577,678.51755 C 1128.3978,680.3548 1126.5337,682.67254 1125.5297,685.45196 C 1124.2241,689.09438 1124.5794,693.10055 1126.6268,697.49131 C 1128.6686,701.87004 1131.5148,704.72934 1135.1443,706.07047 C 1138.7859,707.40594 1142.7695,707.06626 1147.1119,705.04132 C 1147.5688,704.82825 1147.9932,704.59479 1148.4166,704.36396 C 1148.3891,704.33091 1148.3627,704.2971 1148.3355,704.26388 C 1148.3657,704.08911 1148.4179,703.91381 1148.4338,703.7353 C 1148.5527,702.40119 1146.7646,701.61961 1145.9767,700.5365 C 1145.7651,700.24567 1145.5658,699.94614 1145.3577,699.65279 C 1145.1573,699.76614 1144.966,699.86995 1144.7479,699.97166 C 1142.619,700.96439 1140.6019,700.95752 1138.6953,699.93212 C 1136.7888,698.90679 1135.1745,696.96615 1133.8489,694.12357 C 1132.5178,691.26896 1132.0745,688.79695 1132.5145,686.67737 C 1132.7822,685.38781 1133.3462,684.2975 1134.2391,683.42506 C 1133.3546,682.08111 1132.4872,680.72629 1131.6237,679.36912 C 1131.4736,679.08127 1131.3053,678.80669 1131.1577,678.51755 z M 1137.1185,675.77244 C 1138.5344,677.46783 1139.9653,679.15838 1141.3836,680.85209 C 1141.2189,681.04375 1141.0551,681.23249 1140.8926,681.42587 C 1141.4139,681.55547 1141.9224,681.78346 1142.4273,682.05498 C 1144.3338,683.08035 1145.9708,684.99575 1147.302,687.85033 C 1148.6274,690.69289 1149.0481,693.1902 1148.6081,695.30973 C 1148.221,697.17419 1147.1742,698.6031 1145.471,699.59996 C 1145.7512,699.78326 1146.0564,699.95972 1146.3657,700.11373 C 1149.3173,700.51467 1147.4063,700.32432 1151.1079,694.38541 C 1151.3084,694.61491 1151.5044,694.84233 1151.7043,695.07277 C 1152.661,696.2482 1153.6604,697.41051 1154.6427,698.56433 C 1155.0143,697.91408 1155.3377,697.24695 1155.5929,696.53514 C 1156.8985,692.89276 1156.5376,688.87457 1154.4958,684.4958 C 1152.4483,680.10502 1149.6078,677.25781 1145.9783,675.91664 C 1143.2308,674.90146 1140.2814,674.85558 1137.1185,675.77244 z M 977.35901,750.57984 L 989.81304,777.2876 C 990.04698,777.05283 990.27954,776.80436 990.50422,776.55153 C 990.56323,776.6332 990.63638,776.73385 990.69293,776.80833 C 990.79923,776.94834 990.90255,777.07577 991.01753,777.20866 L 996.7386,774.54088 C 996.79664,774.45037 996.86993,774.37124 996.92746,774.28041 L 994.6823,769.46565 C 994.65399,769.80018 994.62904,770.13567 994.59894,770.46998 C 992.49403,767.68603 990.87891,764.27955 989.51577,761.04795 C 990.2371,761.66989 990.97061,762.27028 991.68817,762.89683 L 1002.7904,757.71975 L 1000.334,752.45184 L 989.17506,757.65533 L 986.82425,752.61399 L 998.69121,747.08033 L 996.22154,741.7841 L 992.17147,743.67267 C 992.19211,743.70873 992.20366,743.74991 992.2243,743.78596 C 992.32362,743.94516 992.42001,744.10971 992.51867,744.26934 C 991.71062,744.48778 990.89686,744.69088 990.08312,744.88785 C 990.02409,744.83536 989.96486,744.78158 989.90571,744.72922 L 977.35901,750.57984 z M 1002.7639,738.73332 L 1014.967,764.90296 C 1015.1278,764.67955 1015.2809,764.44989 1015.4468,764.23101 C 1015.2434,763.861 1015.0153,763.51692 1014.8052,763.15096 C 1015.0662,762.91571 1015.3203,762.67266 1015.5662,762.41679 C 1016.0965,762.84387 1016.6857,763.37253 1017.116,763.00438 C 1017.2915,762.85425 1017.4519,762.68846 1017.6183,762.52878 C 1017.6255,762.53512 1017.6244,762.55077 1017.6315,762.55711 C 1017.8864,763.0103 1018.1463,763.47712 1018.4052,763.92039 C 1018.4541,764.00415 1018.5957,764.20939 1018.6599,764.3188 L 1022.3984,762.5755 L 1017.6176,752.3229 L 1019.5718,751.41163 C 1020.7088,750.88144 1021.7255,750.70012 1022.6341,750.88015 C 1023.5548,751.05459 1024.6705,751.6603 1025.9676,752.70482 L 1032.4245,757.90029 L 1039.8449,754.4401 L 1032.4858,748.49299 C 1030.984,747.29363 1029.6563,746.49908 1028.5389,746.09233 C 1027.428,745.66792 1026.3471,745.55206 1025.29,745.77987 C 1026.7779,744.42336 1027.7,742.98624 1028.023,741.43666 C 1028.1752,740.73007 1028.1865,739.98486 1028.0973,739.22975 C 1027.5796,738.34762 1027.0643,737.4492 1026.4915,736.59946 C 1026.0177,735.8966 1025.6156,735.24587 1024.876,734.8357 C 1024.1357,734.72574 1023.6468,734.66163 1023.2996,734.70875 C 1023.1239,734.5952 1022.9362,734.49052 1022.7636,734.37255 C 1022.1876,733.97885 1021.6297,733.5725 1021.0629,733.16569 C 1020.4998,732.74463 1019.9394,732.31653 1019.3925,731.87577 C 1017.6746,732.09145 1015.7026,732.69994 1013.4414,733.75435 L 1006.729,736.88437 C 1006.9842,737.07933 1007.2562,737.25476 1007.5105,737.45096 C 1007.2518,737.7317 1007.008,737.97875 1006.7626,738.21344 C 1006.549,737.86286 1006.3182,737.52632 1006.106,737.17492 L 1002.7639,738.73332 z M 1031.3693,725.39443 L 1044.0082,752.4987 L 1049.1345,750.10826 C 1048.336,748.85426 1047.5538,747.57863 1046.7777,746.31104 C 1047.3684,747.03587 1047.9489,747.76758 1048.5498,748.48451 C 1049.03,748.98758 1049.4126,749.43401 1049.7576,749.81771 L 1055.6203,747.0839 C 1055.5132,747.10226 1055.4044,747.11149 1055.2974,747.131 C 1055.6803,746.5744 1055.8911,746.28665 1056.374,745.59459 C 1056.6705,745.16968 1056.0586,744.58896 1055.8553,744.11245 C 1055.4287,743.11297 1054.9933,742.12748 1054.5384,741.14053 L 1048.5058,743.95358 L 1045.6135,737.75104 L 1053.7136,733.97389 C 1053.614,733.79636 1053.5212,733.61219 1053.4627,733.43577 C 1053.1208,732.40467 1052.7592,731.3667 1052.429,730.33179 C 1053.3143,731.14344 1054.218,731.94565 1055.1318,732.72642 C 1055.2765,732.85502 1055.411,732.98545 1055.5545,733.11545 L 1056.7724,732.54755 L 1054.3159,727.27964 L 1043.157,732.48313 L 1040.8062,727.44179 L 1052.6732,721.90813 L 1050.2035,716.6119 L 1039.4128,721.64369 C 1039.5994,722.38981 1040.2195,723.12219 1040.5128,723.85473 C 1040.5437,723.93203 1040.5873,724.00408 1040.6184,724.08131 C 1040.2885,724.03648 1039.9582,724.00597 1039.6292,723.95641 C 1039.6482,722.6309 1039.7353,721.80892 1038.8363,723.80892 C 1038.3012,723.72218 1037.7684,723.6536 1037.2355,723.55548 C 1037.0815,723.32816 1036.9319,723.09978 1036.7788,722.87193 L 1031.3693,725.39443 z M 1056.7459,713.56112 L 1069.3848,740.66539 L 1088.6439,731.68475 L 1086.1742,726.38851 L 1073.9107,732.10707 L 1071.0184,725.90452 L 1082.1773,720.70104 L 1079.7209,715.43312 L 1068.562,720.63661 L 1066.2111,715.59527 L 1078.0781,710.06161 L 1075.6084,704.76538 L 1056.7459,713.56112 z M 1153.4376,668.47303 L 1166.0765,695.5773 L 1173.0438,692.32842 L 1167.6818,680.82964 L 1178.8407,675.62615 L 1176.3843,670.35824 L 1165.2254,675.56173 L 1162.8745,670.52039 L 1174.7415,664.98673 L 1173.2888,661.8713 C 1173.2456,661.83621 1173.1668,661.7754 1173.1246,661.74099 C 1173.1413,661.70744 1173.1662,661.67859 1173.1831,661.64472 L 1172.2718,659.6905 L 1153.4376,668.47303 z M 1175.6138,658.13209 L 1178.0835,663.42833 L 1187.0616,659.24176 L 1193.7971,673.68604 C 1194.0742,672.82947 1194.343,672.03762 1194.8004,670.73558 C 1194.8549,670.58066 1194.8697,670.4187 1194.8553,670.26174 C 1196.274,672.39807 1197.6452,674.56501 1199.0124,676.73651 C 1197.761,676.52326 1196.5116,676.31325 1195.2538,676.1445 C 1195.0455,675.9227 1194.8354,675.69463 1194.6291,675.47034 L 1197.2309,681.0498 L 1204.2264,677.78771 L 1194.0572,655.97968 L 1203.0353,651.79312 L 1200.5656,646.49688 L 1190.8228,651.04003 C 1190.8716,651.12526 1190.9217,651.1984 1190.97,651.28172 C 1190.805,651.48529 1190.6462,651.68093 1190.4639,651.89702 C 1190.3548,652.02629 1190.422,652.41401 1190.5221,652.83531 C 1190.4857,652.78351 1190.451,652.73037 1190.4146,652.67859 C 1190.1098,652.25994 1189.8548,651.9127 1189.6333,651.59471 L 1175.6138,658.13209 z M 1201.8401,645.90257 L 1220.9365,669.99569 L 1228.98,666.24495 L 1224.25,643.3832 L 1238.7794,661.67539 L 1246.4264,658.10955 C 1246.2265,657.87079 1246.0269,657.6238 1245.8168,657.39386 C 1245.6713,657.2346 1244.7286,656.27313 1244.2938,655.82836 C 1245.0091,655.83102 1245.7118,655.8224 1246.378,655.78744 L 1240.5848,627.83564 L 1233.9291,630.93925 L 1238.4347,652.80224 L 1224.6111,635.28429 L 1217.8704,638.42751 L 1222.4044,660.2773 L 1208.5525,642.77256 L 1201.8401,645.90257 z M 1250.2993,623.3057 L 1250.542,626.19235 C 1251.7884,626.92254 1253.0461,627.65783 1254.3812,628.43628 C 1255.516,629.12789 1256.6284,629.86288 1257.7335,630.59701 L 1257.4209,627.70846 L 1266.1629,636.76909 L 1263.5573,637.98412 C 1263.7225,638.25171 1263.8748,638.52564 1264.0385,638.79416 C 1264.4417,639.45579 1264.8405,640.12191 1265.2424,640.78434 C 1265.1711,640.93024 1265.0813,641.08748 1265.0062,641.23925 C 1263.9532,640.40999 1262.8741,639.60558 1261.8013,638.80294 L 1258.7425,640.22928 L 1258.3341,636.24761 C 1256.9089,635.22927 1255.4726,634.21129 1254.0268,633.22196 C 1252.9182,631.43516 1251.7865,629.63814 1250.6642,627.85938 L 1252.916,654.94548 C 1253.2301,654.5809 1253.5379,654.21524 1253.8546,653.85268 C 1254.0666,653.75375 1254.2573,653.67098 1254.4777,653.56213 C 1256.1834,652.71982 1257.771,651.61127 1259.2776,650.32394 C 1259.3651,650.38505 1259.7087,650.60595 1259.8269,650.68846 L 1259.3242,646.06111 L 1270.2565,640.96328 L 1274.267,645.12724 L 1281.2909,641.85195 L 1258.626,619.4229 L 1250.2993,623.3057 z M 1272.2206,613.08363 L 1274.8884,618.80469 C 1275.8055,618.22158 1276.7294,617.5906 1277.6377,616.9365 C 1278.348,618.08359 1279.0657,619.23888 1279.7662,620.39195 C 1279.7386,620.42951 1279.7069,620.46383 1279.6793,620.50142 C 1279.3193,620.12612 1278.9412,619.76652 1278.5771,619.3948 C 1277.9343,620.38452 1277.2113,621.35034 1276.526,622.31664 L 1284.8595,640.18789 L 1291.8551,636.92581 L 1287.0742,626.6732 L 1289.0568,625.74872 C 1290.1938,625.21854 1291.2104,625.03722 1292.1191,625.21724 C 1293.0398,625.39169 1294.1555,625.9974 1295.4525,627.04192 L 1301.8811,632.25059 L 1309.3298,628.7772 L 1301.9424,622.8433 C 1300.4406,621.64393 1299.1412,620.83619 1298.0239,620.42943 C 1296.9129,620.00502 1295.8037,619.90237 1294.7466,620.13018 C 1296.2346,618.77367 1297.1567,617.33654 1297.4796,615.78697 C 1297.8147,614.23177 1297.557,612.55146 1296.7222,610.7612 C 1295.5151,608.17272 1293.8161,606.6781 1291.5885,606.25898 C 1289.3729,605.83426 1286.4663,606.44075 1282.898,608.10465 L 1274.5147,612.01387 C 1274.9778,612.74412 1275.4494,613.45865 1275.9092,614.19101 C 1275.26,614.53716 1274.6105,614.85909 1273.9398,615.14381 C 1274.0014,614.17219 1274.0434,613.19791 1274.0615,612.22518 L 1272.2206,613.08363 z M 1300.8259,599.74474 L 1313.4649,626.849 L 1332.7239,617.86837 L 1330.2542,612.57213 L 1325.9776,614.56636 C 1326.797,615.50298 1327.6281,616.42037 1328.4744,617.33284 C 1328.0252,617.37708 1327.5776,617.43369 1327.1283,617.47781 C 1326.4624,616.6412 1325.8155,615.79098 1325.1562,614.94936 L 1317.9907,618.29068 L 1315.0984,612.08814 L 1320.9045,609.38074 C 1320.6318,609.00601 1320.3657,608.61774 1320.0968,608.24022 C 1320.2628,607.99924 1320.4296,607.76905 1320.5916,607.52675 C 1320.947,608.0298 1321.3112,608.52292 1321.6692,609.02416 L 1326.2574,606.88465 L 1323.8009,601.61674 L 1312.642,606.82022 L 1310.2912,601.77889 L 1322.1581,596.24523 L 1319.6885,590.94899 L 1300.8259,599.74474 z M 1059.406,713.42409 C 1059.6714,713.68383 1059.9492,713.92274 1060.21,714.18703 C 1060.1981,714.21307 1060.1767,714.28497 1060.1646,714.31162 C 1060.0183,714.44815 1059.8415,714.60396 1059.7058,714.73248 C 1059.6005,714.29316 1059.498,713.86729 1059.406,713.42409 z M 1008.9185,738.62186 C 1009.1518,738.81942 1009.3975,739.02794 1009.6017,739.19976 C 1009.7193,739.50132 1009.8394,739.80163 1009.9545,740.10415 C 1010.8967,742.58207 1011.8396,745.06679 1012.7709,747.5489 C 1012.7582,747.56832 1012.7402,747.58428 1012.7275,747.60364 C 1012.5036,747.27198 1012.2466,746.91828 1011.9613,746.47823 C 1010.5731,744.37273 1009.2416,742.23428 1007.9137,740.09034 C 1008.2334,739.62864 1008.5647,739.15045 1008.9185,738.62186 z M 1156.3917,669.85395 C 1156.4041,669.83838 1156.4274,669.82561 1156.4484,669.82753 C 1156.6058,669.84191 1156.7473,669.90187 1156.892,669.96548 C 1156.7719,670.08493 1156.6685,670.21599 1156.5464,670.33351 C 1156.4401,670.43579 1156.3055,669.96288 1156.3917,669.85395 z M 1182.2912,658.32851 C 1182.6379,658.47733 1182.9677,658.65847 1183.3124,658.81777 C 1183.1849,659.04514 1183.0662,659.2769 1182.9441,659.50674 C 1182.724,659.1252 1182.5272,658.75371 1182.2912,658.32851 z M 1200.9646,650.8278 C 1200.9948,650.87134 1201.0287,650.91265 1201.0589,650.9562 C 1201.109,651.07422 1201.1678,651.25695 1201.2664,651.54906 C 1201.1276,651.42098 1201.0083,651.2774 1200.872,651.14682 C 1200.8916,651.09125 1200.9137,651.03666 1200.9324,650.98071 C 1200.9508,650.92602 1200.9661,650.87883 1200.9646,650.8278 z M 1015.2092,737.61936 C 1015.6204,737.97233 1016.0578,738.31061 1016.4813,738.64675 C 1017.2915,738.41727 1017.9882,738.35352 1018.5543,738.50765 C 1019.4435,738.74097 1020.1833,739.48712 1020.7586,740.7209 C 1020.8313,740.87664 1020.8709,741.0095 1020.9284,741.15894 C 1020.9758,741.17846 1021.0183,741.20283 1021.0662,741.23261 C 1022.539,739.46753 1023.5928,737.36467 1025.0513,735.58147 C 1026.2797,734.07965 1023.0241,740.87801 1021.4343,741.5782 C 1021.7252,741.87807 1021.9971,742.22818 1022.125,742.39397 C 1022.5103,742.89379 1022.868,743.39506 1023.2157,743.9197 C 1022.9832,744.2201 1022.7911,744.49869 1022.634,744.74264 C 1022.2068,744.45012 1021.7854,744.1474 1021.3581,743.85496 C 1021.2704,743.79499 1021.1849,743.72656 1021.0976,743.6661 C 1021.0767,743.72211 1021.0621,743.77786 1021.0371,743.83221 C 1020.662,744.66985 1019.74,745.43701 1018.2764,746.11951 L 1015.3592,747.47981 L 1012.1235,740.54089 L 1015.0407,739.18059 C 1015.2642,739.07638 1015.4672,739.00108 1015.677,738.91836 C 1015.5208,738.48479 1015.3634,738.05375 1015.2092,737.61936 z M 1021.4343,741.5782 C 1021.3087,741.44882 1021.1978,741.3144 1021.0662,741.23261 C 1021.0451,741.25794 1021.0158,741.27536 1020.9945,741.30055 C 1021.0295,741.39901 1021.0699,741.50133 1021.0982,741.59698 C 1021.1976,741.62129 1021.3125,741.63183 1021.4343,741.5782 z M 1281.5802,614.8912 L 1284.5257,613.51769 C 1285.9893,612.83524 1287.1621,612.6059 1288.0392,612.84475 C 1288.9285,613.07807 1289.6683,613.82422 1290.2436,615.058 C 1290.8246,616.3039 1290.9093,617.32606 1290.5221,618.16931 C 1290.1808,618.93123 1289.3581,619.62304 1288.1163,620.2566 C 1288.2198,620.35775 1288.3262,620.45774 1288.4296,620.55875 C 1289.0731,621.20359 1289.7182,621.84075 1290.3622,622.48496 C 1289.548,621.78052 1288.7403,621.08799 1287.9313,620.37737 C 1287.8724,620.40599 1287.8221,620.42826 1287.7613,620.45661 L 1284.8158,621.83012 L 1281.5802,614.8912 z M 1306.5178,606.33135 C 1306.4846,606.52101 1306.4498,606.71117 1306.4044,606.90145 C 1306.3878,606.88528 1306.3663,606.87419 1306.3497,606.85801 C 1306.4064,606.68755 1306.5488,606.15438 1306.5178,606.33135 z M 1214.423,658.17185 C 1215.1111,659.45241 1215.8296,660.70903 1216.542,661.97656 C 1216.4386,662.2025 1216.3126,662.42845 1216.202,662.65232 C 1215.7699,661.99985 1215.2665,661.22712 1214.8999,660.67344 C 1214.511,660.10764 1214.1183,659.54392 1213.7299,658.97777 C 1213.9614,658.70991 1214.1849,658.43561 1214.423,658.17185 z M 1113.1751,705.76382 C 1113.3426,706.1241 1113.5092,706.4799 1113.677,706.84006 C 1113.3913,706.42758 1113.244,706.19769 1113.0184,705.87138 C 1113.0513,705.85032 1113.1433,705.78422 1113.1751,705.76382 z M 1150.4964,693.73957 C 1150.5116,693.75686 1150.5359,693.76571 1150.5511,693.78301 C 1150.5028,693.8601 1150.5367,693.82632 1150.4775,693.9208 C 1150.4487,693.91248 1150.4228,693.8994 1150.3944,693.89057 C 1150.4561,693.80392 1150.445,693.81184 1150.4964,693.73957 z M 1103.7743,715.69885 L 1106.5345,721.61818 C 1107.3404,721.55243 1108.1362,721.44918 1108.919,721.33381 C 1108.5336,720.88358 1107.8382,720.50304 1107.4865,720.03641 C 1106.901,719.25961 1106.3297,718.4582 1105.7617,717.6685 C 1105.4121,717.01761 1105.0608,716.36002 1104.7107,715.71046 C 1104.4033,715.70233 1104.0887,715.71527 1103.7743,715.69885 z M 1060.2311,738.48596 C 1059.759,739.33799 1059.2322,740.32088 1058.5368,741.65521 C 1058.2454,742.21418 1058.7036,742.95734 1059.046,743.48661 C 1059.392,744.02152 1059.836,744.48729 1060.3501,744.87836 L 1063.2389,743.53127 L 1060.7693,738.23503 L 1060.2311,738.48596 z M 1169.0837,689.89944 C 1169.3396,690.13665 1169.6069,690.3713 1169.8613,690.60573 C 1169.8304,690.67166 1169.8166,690.74706 1169.7858,690.81338 C 1169.5564,690.50355 1169.3119,690.21014 1169.0837,689.89944 z M 969.59655,793.67977 C 969.70435,793.81247 969.8132,793.94757 969.92115,794.08007 C 969.94269,794.15777 969.99008,794.27087 970.01169,794.34817 C 969.87781,794.12397 969.73078,793.90377 969.59655,793.67977 z M 1042.7408,773.81251 C 1042.825,773.79356 1042.9096,773.78228 1042.9938,773.7635 C 1043.7897,773.55962 1044.5955,773.34617 1045.3878,773.12988 C 1045.5108,773.40689 1045.6009,773.69674 1045.7142,773.97763 C 1045.7012,774.02734 1045.6947,774.08064 1045.6821,774.13054 C 1044.7294,774.07765 1043.7957,773.95157 1042.8937,773.84465 C 1042.842,773.83852 1042.7925,773.81874 1042.7408,773.81251 z M 1344.9208,633.00711 C 1345.9578,633.32689 1346.9855,633.66864 1348.0261,633.97273 C 1348.1066,634.07274 1348.1892,634.17284 1348.2695,634.27298 C 1347.5375,634.23437 1346.8092,634.20051 1346.0777,634.15717 C 1345.6959,633.76983 1345.3003,633.39679 1344.9208,633.00711 z M 1331.2336,639.66541 C 1332.1019,639.73591 1332.9742,639.79306 1333.8426,639.86252 C 1333.9639,641.08397 1334.0924,642.44329 1334.2379,643.81586 C 1333.812,644.34234 1333.4009,644.87435 1332.9782,645.40319 C 1332.2373,645.23607 1331.5769,645.09005 1331.1131,645.10058 C 1330.6313,645.11152 1330.1783,645.33655 1329.731,645.53816 C 1330.6745,643.90284 1331.3844,642.38702 1331.637,641.78751 C 1331.9153,641.12676 1331.5056,640.35405 1331.2336,639.66541 z M 1084.8231,756.39599 C 1084.9341,757.46974 1085.0499,758.53584 1085.1827,759.60739 C 1084.3607,760.18192 1083.5288,760.75318 1082.7166,761.34351 C 1081.0366,761.2184 1079.2553,761.10535 1077.9574,761.04571 C 1077.9285,760.98964 1077.9069,760.93187 1077.8781,760.87578 C 1077.8115,760.74573 1077.7317,760.62244 1077.6649,760.49247 C 1080.11,759.21372 1082.5308,757.83 1084.8231,756.39599 z M 1065.424,766.40737 C 1066.8925,766.38921 1068.3653,766.36163 1069.8152,766.35958 C 1070.0009,766.36895 1070.0313,766.37556 1070.206,766.38424 C 1070.0956,766.78062 1069.985,767.1005 1069.8829,767.4659 C 1068.3864,767.1466 1066.9008,766.80931 1065.424,766.40737 z M 1089.609,755.71588 C 1089.8869,755.70207 1090.1693,755.68383 1090.4492,755.66893 C 1090.5633,755.76125 1090.6657,755.83976 1090.7776,755.92955 C 1090.4303,756.15036 1090.0987,756.39225 1089.7523,756.61455 C 1089.7039,756.31372 1089.655,756.01704 1089.609,755.71588 z M 1233.976,689.60329 C 1234.0389,689.62191 1234.1078,689.6319 1234.1704,689.65055 C 1234.2059,689.81948 1234.2343,689.98734 1234.2684,690.15653 C 1234.1724,689.97092 1234.0726,689.78864 1233.976,689.60329 z M 1139.6893,735.19049 C 1139.9967,735.42182 1140.2282,735.5959 1140.5386,735.82885 C 1140.4596,735.85979 1140.3717,735.90773 1140.2837,735.94771 C 1139.9893,735.99816 1139.5879,736.08114 1139.2434,736.15696 C 1139.2275,736.13049 1139.2199,736.0984 1139.2038,736.07199 C 1139.3581,735.77221 1139.5341,735.48974 1139.6893,735.19049 z" style="font-size: 40px; font-style: normal; font-weight: normal; fill: rgb(212, 0, 0); fill-opacity: 1; stroke: none; stroke-width: 1px; stroke-linecap: butt; stroke-linejoin: miter; stroke-opacity: 1; font-family: Bitstream Vera Sans;"/>
  </g>
</svg>